<?xml version="1.0" encoding="UTF-8"?>
<!DOCTYPE svg PUBLIC "-//W3C//DTD SVG 1.1//EN" "http://www.w3.org/Graphics/SVG/1.1/DTD/svg11.dtd">
<svg xmlns="http://www.w3.org/2000/svg" version="1.1" width="600px" height="690px" style="shape-rendering:geometricPrecision; text-rendering:geometricPrecision; image-rendering:optimizeQuality; fill-rule:evenodd; clip-rule:evenodd" xmlns:xlink="http://www.w3.org/1999/xlink">
<g><path style="opacity:0.939" fill="#000091" d="M 297.5,-0.5 C 298.833,-0.5 300.167,-0.5 301.5,-0.5C 400.499,57.0022 499.833,114.002 599.5,170.5C 599.5,286.5 599.5,402.5 599.5,518.5C 499.833,574.998 400.499,631.998 301.5,689.5C 300.167,689.5 298.833,689.5 297.5,689.5C 198.501,631.998 99.1674,574.998 -0.5,518.5C -0.5,402.5 -0.5,286.5 -0.5,170.5C 99.1674,114.002 198.501,57.0022 297.5,-0.5 Z M 297.5,14.5 C 298.873,14.3433 300.207,14.51 301.5,15C 396.585,69.9597 491.752,124.793 587,179.5C 587.667,289.5 587.667,399.5 587,509.5C 491.211,564.643 395.377,619.643 299.5,674.5C 204.204,619.849 108.871,565.183 13.5,510.5C 12.1667,399.833 12.1667,289.167 13.5,178.5C 108.556,124.312 203.223,69.6451 297.5,14.5 Z"/></g>
<g><path style="opacity:0.996" fill="#000091" d="M 297.5,39.5 C 299.655,39.372 301.655,39.872 303.5,41C 390.5,91.1667 477.5,141.333 564.5,191.5C 565.833,293.5 565.833,395.5 564.5,497.5C 476.292,548.436 387.959,599.102 299.5,649.5C 211.126,599.229 122.959,548.562 35,497.5C 34.3333,395.5 34.3333,293.5 35,191.5C 122.645,140.933 210.145,90.2662 297.5,39.5 Z"/></g>
<g><path style="opacity:1" fill="#8c8bcd" d="M 250.5,249.5 C 250.5,262.167 250.5,274.833 250.5,287.5C 255.833,287.5 261.167,287.5 266.5,287.5C 261.025,288.489 255.358,288.822 249.5,288.5C 249.171,275.323 249.505,262.323 250.5,249.5 Z"/></g>
<g><path style="opacity:1" fill="#f8f7fc" d="M 250.5,249.5 C 255.844,249.334 261.177,249.501 266.5,250C 275.123,253.742 276.789,259.575 271.5,267.5C 277.318,272.692 277.985,278.526 273.5,285C 271.35,286.411 269.016,287.245 266.5,287.5C 261.167,287.5 255.833,287.5 250.5,287.5C 250.5,274.833 250.5,262.167 250.5,249.5 Z"/></g>
<g><path style="opacity:1" fill="#f5f4fa" d="M 283.5,249.5 C 286.167,249.5 288.833,249.5 291.5,249.5C 291.334,258.506 291.5,267.506 292,276.5C 294.913,281.689 299.08,282.856 304.5,280C 305.126,279.25 305.626,278.416 306,277.5C 306.5,268.173 306.666,258.839 306.5,249.5C 309.5,249.5 312.5,249.5 315.5,249.5C 315.666,257.507 315.5,265.507 315,273.5C 312.828,287.341 304.995,292.174 291.5,288C 288.667,286.5 286.5,284.333 285,281.5C 283.597,270.898 283.097,260.231 283.5,249.5 Z"/></g>
<g><path style="opacity:1" fill="#fefdfe" d="M 352.5,256.5 C 348.5,256.5 344.5,256.5 340.5,256.5C 340.5,266.833 340.5,277.167 340.5,287.5C 338.167,287.5 335.833,287.5 333.5,287.5C 333.828,276.986 333.494,266.653 332.5,256.5C 328.5,256.5 324.5,256.5 320.5,256.5C 320.5,254.167 320.5,251.833 320.5,249.5C 331.167,249.5 341.833,249.5 352.5,249.5C 352.5,251.833 352.5,254.167 352.5,256.5 Z"/></g>
<g><path style="opacity:1" fill="#140b94" d="M 258.5,256.5 C 260.527,256.338 262.527,256.505 264.5,257C 267.167,259.333 267.167,261.667 264.5,264C 262.527,264.495 260.527,264.662 258.5,264.5C 258.5,261.833 258.5,259.167 258.5,256.5 Z"/></g>
<g><path style="opacity:1" fill="#bfbfe3" d="M 332.5,256.5 C 333.494,266.653 333.828,276.986 333.5,287.5C 335.833,287.5 338.167,287.5 340.5,287.5C 340.5,287.833 340.5,288.167 340.5,288.5C 337.833,288.5 335.167,288.5 332.5,288.5C 332.5,277.833 332.5,267.167 332.5,256.5 Z"/></g>
<g><path style="opacity:1" fill="#4140ad" d="M 352.5,256.5 C 349.038,257.482 345.371,257.815 341.5,257.5C 341.828,268.014 341.494,278.347 340.5,288.5C 340.5,288.167 340.5,287.833 340.5,287.5C 340.5,277.167 340.5,266.833 340.5,256.5C 344.5,256.5 348.5,256.5 352.5,256.5 Z"/></g>
<g><path style="opacity:1" fill="#0d0793" d="M 258.5,271.5 C 260.857,271.337 263.19,271.503 265.5,272C 268.987,274.451 269.32,277.284 266.5,280.5C 263.916,281.393 261.249,281.726 258.5,281.5C 258.5,278.167 258.5,274.833 258.5,271.5 Z"/></g>
<g><path style="opacity:1" fill="#ebeaf6" d="M 366.5,311.5 C 372.448,310.441 376.448,312.774 378.5,318.5C 377.277,319.614 375.944,319.781 374.5,319C 372.983,317.315 371.316,315.815 369.5,314.5C 368.019,315.48 366.685,316.647 365.5,318C 364.056,318.781 362.723,318.614 361.5,317.5C 363.19,315.481 364.856,313.481 366.5,311.5 Z"/></g>
<g><path style="opacity:1" fill="#e1e0f2" d="M 440.5,311.5 C 442.527,311.338 444.527,311.505 446.5,312C 444.167,314.333 441.833,316.667 439.5,319C 437.741,319.798 436.074,319.631 434.5,318.5C 436.523,316.147 438.523,313.814 440.5,311.5 Z"/></g>
<g><path style="opacity:1" fill="#f3f2fa" d="M 165.5,320.5 C 173.803,320.041 180.803,322.708 186.5,328.5C 185.788,330.046 184.622,331.046 183,331.5C 177.67,326.855 171.504,325.355 164.5,327C 153.703,334.838 152.703,343.838 161.5,354C 169.465,358.1 176.465,356.934 182.5,350.5C 183.981,351.48 185.315,352.647 186.5,354C 180.375,361.054 172.708,363.387 163.5,361C 152.266,355.679 148.1,346.845 151,334.5C 153.774,327.557 158.607,322.89 165.5,320.5 Z"/></g>
<g><path style="opacity:1" fill="#f0f0f8" d="M 206.5,320.5 C 222.846,320.347 231.013,328.347 231,344.5C 229.691,353.14 224.858,358.64 216.5,361C 203.886,363.384 195.386,358.551 191,346.5C 188.974,333.392 194.141,324.726 206.5,320.5 Z"/></g>
<g><path style="opacity:1" fill="#f0f0f8" d="M 365.5,320.5 C 381.846,320.347 390.013,328.347 390,344.5C 388.691,353.14 383.858,358.64 375.5,361C 362.886,363.384 354.386,358.551 350,346.5C 347.974,333.392 353.141,324.726 365.5,320.5 Z"/></g>
<g><path style="opacity:1" fill="#f9f8fc" d="M 266.5,352.5 C 266.56,353.043 266.893,353.376 267.5,353.5C 268.499,343.188 268.832,332.855 268.5,322.5C 269.833,322.5 271.167,322.5 272.5,322.5C 272.5,335.167 272.5,347.833 272.5,360.5C 269.881,360.768 267.381,360.435 265,359.5C 259.004,350.013 252.837,340.68 246.5,331.5C 246.217,330.711 245.717,330.044 245,329.5C 244.5,339.828 244.334,350.161 244.5,360.5C 242.833,360.5 241.167,360.5 239.5,360.5C 239.5,347.5 239.5,334.5 239.5,321.5C 241.924,321.192 244.257,321.526 246.5,322.5C 253.585,332.246 260.251,342.246 266.5,352.5 Z"/></g>
<g><path style="opacity:1" fill="#bcbce2" d="M 272.5,360.5 C 272.5,347.833 272.5,335.167 272.5,322.5C 271.167,322.5 269.833,322.5 268.5,322.5C 268.832,332.855 268.499,343.188 267.5,353.5C 266.893,353.376 266.56,353.043 266.5,352.5C 267.494,342.347 267.828,332.014 267.5,321.5C 269.5,321.5 271.5,321.5 273.5,321.5C 273.829,334.677 273.495,347.677 272.5,360.5 Z"/></g>
<g><path style="opacity:1" fill="#efedf8" d="M 293.5,360.5 C 293.5,349.167 293.5,337.833 293.5,326.5C 289.167,326.5 284.833,326.5 280.5,326.5C 280.5,324.833 280.5,323.167 280.5,321.5C 290.833,321.5 301.167,321.5 311.5,321.5C 311.5,323.5 311.5,325.5 311.5,327.5C 307.167,327.5 302.833,327.5 298.5,327.5C 298.5,338.5 298.5,349.5 298.5,360.5C 296.833,360.5 295.167,360.5 293.5,360.5 Z"/></g>
<g><path style="opacity:1" fill="#b1b0dd" d="M 332.5,322.5 C 328.167,322.5 323.833,322.5 319.5,322.5C 319.5,335.167 319.5,347.833 319.5,360.5C 318.505,347.677 318.171,334.677 318.5,321.5C 323.363,321.181 328.03,321.514 332.5,322.5 Z"/></g>
<g><path style="opacity:1" fill="#f3f3fa" d="M 332.5,322.5 C 341.407,325.063 343.907,330.729 340,339.5C 338.59,340.787 337.09,341.954 335.5,343C 339.5,348.667 343.5,354.333 347.5,360C 345.098,360.814 342.765,360.647 340.5,359.5C 337.167,354.5 333.833,349.5 330.5,344.5C 328.604,343.534 326.604,343.201 324.5,343.5C 324.5,349.167 324.5,354.833 324.5,360.5C 322.833,360.5 321.167,360.5 319.5,360.5C 319.5,347.833 319.5,335.167 319.5,322.5C 323.833,322.5 328.167,322.5 332.5,322.5 Z"/></g>
<g><path style="opacity:1" fill="#f8f8fc" d="M 398.5,321.5 C 400.167,321.5 401.833,321.5 403.5,321.5C 403.5,332.833 403.5,344.167 403.5,355.5C 408.833,355.5 414.167,355.5 419.5,355.5C 419.5,357.167 419.5,358.833 419.5,360.5C 412.5,360.5 405.5,360.5 398.5,360.5C 398.5,347.5 398.5,334.5 398.5,321.5 Z"/></g>
<g><path style="opacity:1" fill="#f3f3fa" d="M 431.5,338.5 C 435.634,339.485 439.968,339.818 444.5,339.5C 444.5,340.5 444.5,341.5 444.5,342.5C 439.968,342.182 435.634,342.515 431.5,343.5C 431.5,347.5 431.5,351.5 431.5,355.5C 436.833,355.5 442.167,355.5 447.5,355.5C 447.5,357.167 447.5,358.833 447.5,360.5C 440.5,360.5 433.5,360.5 426.5,360.5C 426.5,347.5 426.5,334.5 426.5,321.5C 433.5,321.5 440.5,321.5 447.5,321.5C 447.5,323.167 447.5,324.833 447.5,326.5C 442.167,326.5 436.833,326.5 431.5,326.5C 431.5,330.5 431.5,334.5 431.5,338.5 Z"/></g>
<g><path style="opacity:1" fill="#070392" d="M 204.5,326.5 C 214.23,324.115 221.063,327.449 225,336.5C 226.638,350.526 220.472,357.026 206.5,356C 197.587,351.957 194.42,345.124 197,335.5C 198.642,331.7 201.142,328.7 204.5,326.5 Z"/></g>
<g><path style="opacity:1" fill="#7573c2" d="M 324.5,326.5 C 324.5,330.5 324.5,334.5 324.5,338.5C 326.833,338.5 329.167,338.5 331.5,338.5C 329.052,339.473 326.385,339.806 323.5,339.5C 323.182,334.968 323.515,330.634 324.5,326.5 Z"/></g>
<g><path style="opacity:1" fill="#030291" d="M 324.5,326.5 C 332.868,325.061 336.368,328.395 335,336.5C 334.184,337.823 333.017,338.489 331.5,338.5C 329.167,338.5 326.833,338.5 324.5,338.5C 324.5,334.5 324.5,330.5 324.5,326.5 Z"/></g>
<g><path style="opacity:1" fill="#080392" d="M 363.5,326.5 C 373.23,324.115 380.063,327.449 384,336.5C 385.638,350.526 379.472,357.026 365.5,356C 356.587,351.957 353.42,345.124 356,335.5C 357.642,331.7 360.142,328.7 363.5,326.5 Z"/></g>
<g><path style="opacity:1" fill="#514eb3" d="M 280.5,326.5 C 284.833,326.5 289.167,326.5 293.5,326.5C 293.5,337.833 293.5,349.167 293.5,360.5C 292.505,349.679 292.172,338.679 292.5,327.5C 288.298,327.817 284.298,327.483 280.5,326.5 Z"/></g>
<g><path style="opacity:1" fill="#4242ae" d="M 246.5,331.5 C 245.833,341.167 245.167,350.833 244.5,360.5C 244.334,350.161 244.5,339.828 245,329.5C 245.717,330.044 246.217,330.711 246.5,331.5 Z"/></g>
<g><path style="opacity:1" fill="#bebee3" d="M 431.5,338.5 C 436.167,338.5 440.833,338.5 445.5,338.5C 445.5,340.167 445.5,341.833 445.5,343.5C 440.833,343.5 436.167,343.5 431.5,343.5C 435.634,342.515 439.968,342.182 444.5,342.5C 444.5,341.5 444.5,340.5 444.5,339.5C 439.968,339.818 435.634,339.485 431.5,338.5 Z"/></g>
<g><path style="opacity:1" fill="#edecf7" d="M 330.5,383.5 C 332.527,383.338 334.527,383.505 336.5,384C 334.167,386.333 331.833,388.667 329.5,391C 327.833,391.667 326.167,391.667 324.5,391C 326.334,388.337 328.334,385.837 330.5,383.5 Z"/></g>
<g><path style="opacity:1" fill="#f6f5fb" d="M 162.5,394.5 C 167.844,394.334 173.177,394.501 178.5,395C 185.358,397.549 187.858,402.383 186,409.5C 181.538,415.923 175.371,418.256 167.5,416.5C 167.5,422.167 167.5,427.833 167.5,433.5C 165.833,433.5 164.167,433.5 162.5,433.5C 162.5,420.5 162.5,407.5 162.5,394.5 Z"/></g>
<g><path style="opacity:1" fill="#efeff8" d="M 199.5,394.5 C 202.247,394.187 204.914,394.52 207.5,395.5C 212.696,407.753 217.696,420.087 222.5,432.5C 220.5,433.833 218.5,433.833 216.5,432.5C 215.296,429.261 213.962,426.094 212.5,423C 206.472,422.17 200.472,422.336 194.5,423.5C 193.167,426.5 191.833,429.5 190.5,432.5C 188.5,433.833 186.5,433.833 184.5,432.5C 189.898,419.968 194.898,407.301 199.5,394.5 Z"/></g>
<g><path style="opacity:1" fill="#f5f5fa" d="M 229.5,394.5 C 235.593,394.139 241.593,394.639 247.5,396C 254.307,402.856 253.974,409.356 246.5,415.5C 250.376,421.42 254.376,427.254 258.5,433C 256.098,433.814 253.765,433.647 251.5,432.5C 248.167,427.5 244.833,422.5 241.5,417.5C 239.257,416.526 236.924,416.192 234.5,416.5C 234.5,422.167 234.5,427.833 234.5,433.5C 232.833,433.5 231.167,433.5 229.5,433.5C 229.5,420.5 229.5,407.5 229.5,394.5 Z"/></g>
<g><path style="opacity:1" fill="#fefffe" d="M 283.5,394.5 C 283.5,405.833 283.5,417.167 283.5,428.5C 288.5,428.5 293.5,428.5 298.5,428.5C 298.5,429.833 298.5,431.167 298.5,432.5C 291.833,432.5 285.167,432.5 278.5,432.5C 278.5,419.833 278.5,407.167 278.5,394.5C 280.167,394.5 281.833,394.5 283.5,394.5 Z"/></g>
<g><path style="opacity:1" fill="#4140ad" d="M 283.5,394.5 C 284.495,405.321 284.828,416.321 284.5,427.5C 289.695,427.179 294.695,427.513 299.5,428.5C 299.167,428.5 298.833,428.5 298.5,428.5C 293.5,428.5 288.5,428.5 283.5,428.5C 283.5,417.167 283.5,405.833 283.5,394.5 Z"/></g>
<g><path style="opacity:1" fill="#f0f0f8" d="M 302.5,394.5 C 304.604,394.201 306.604,394.534 308.5,395.5C 306.255,399.983 304.589,404.65 303.5,409.5C 301.833,409.5 300.167,409.5 298.5,409.5C 299.833,404.501 301.166,399.501 302.5,394.5 Z"/></g>
<g><path style="opacity:1" fill="#f9f9fc" d="M 337.5,398.5 C 332.167,398.5 326.833,398.5 321.5,398.5C 321.5,402.833 321.5,407.167 321.5,411.5C 325.833,411.5 330.167,411.5 334.5,411.5C 335.434,412.568 335.768,413.901 335.5,415.5C 330.833,415.5 326.167,415.5 321.5,415.5C 321.5,419.833 321.5,424.167 321.5,428.5C 326.833,428.5 332.167,428.5 337.5,428.5C 337.5,430.167 337.5,431.833 337.5,433.5C 330.5,433.5 323.5,433.5 316.5,433.5C 316.5,420.5 316.5,407.5 316.5,394.5C 323.5,394.5 330.5,394.5 337.5,394.5C 337.5,395.833 337.5,397.167 337.5,398.5 Z"/></g>
<g><path style="opacity:1" fill="#fafafd" d="M 361.5,399.5 C 360.505,410.321 360.172,421.321 360.5,432.5C 359.167,432.5 357.833,432.5 356.5,432.5C 356.828,421.321 356.495,410.321 355.5,399.5C 351.167,399.5 346.833,399.5 342.5,399.5C 342.5,397.833 342.5,396.167 342.5,394.5C 353.167,394.5 363.833,394.5 374.5,394.5C 374.5,396.167 374.5,397.833 374.5,399.5C 370.167,399.5 365.833,399.5 361.5,399.5 Z"/></g>
<g><path style="opacity:1" fill="#f0eff8" d="M 388.5,394.5 C 391.119,394.232 393.619,394.565 396,395.5C 401.334,408.007 406.168,420.674 410.5,433.5C 408.533,433.739 406.699,433.406 405,432.5C 403.526,429.244 402.36,425.911 401.5,422.5C 395.132,422.17 388.798,422.504 382.5,423.5C 381.431,426.539 380.265,429.539 379,432.5C 377.301,433.406 375.467,433.739 373.5,433.5C 377.909,420.272 382.909,407.272 388.5,394.5 Z"/></g>
<g><path style="opacity:1" fill="#fdfdfe" d="M 409.5,394.5 C 419.833,394.5 430.167,394.5 440.5,394.5C 440.5,396.167 440.5,397.833 440.5,399.5C 436.167,399.5 431.833,399.5 427.5,399.5C 427.5,410.833 427.5,422.167 427.5,433.5C 425.833,433.5 424.167,433.5 422.5,433.5C 422.5,422.167 422.5,410.833 422.5,399.5C 418.167,399.5 413.833,399.5 409.5,399.5C 409.5,397.833 409.5,396.167 409.5,394.5 Z"/></g>
<g><path style="opacity:1" fill="#5552b5" d="M 174.5,399.5 C 172.5,399.5 170.5,399.5 168.5,399.5C 168.5,403.5 168.5,407.5 168.5,411.5C 167.515,407.366 167.182,403.032 167.5,398.5C 170.059,398.198 172.393,398.532 174.5,399.5 Z"/></g>
<g><path style="opacity:1" fill="#070392" d="M 174.5,399.5 C 179.85,400.184 181.684,403.184 180,408.5C 179.167,409.333 178.333,410.167 177.5,411C 174.518,411.498 171.518,411.665 168.5,411.5C 168.5,407.5 168.5,403.5 168.5,399.5C 170.5,399.5 172.5,399.5 174.5,399.5 Z"/></g>
<g><path style="opacity:1" fill="#5350b4" d="M 240.5,399.5 C 238.833,399.5 237.167,399.5 235.5,399.5C 235.5,403.5 235.5,407.5 235.5,411.5C 234.515,407.366 234.182,403.032 234.5,398.5C 236.735,398.205 238.735,398.539 240.5,399.5 Z"/></g>
<g><path style="opacity:1" fill="#060392" d="M 240.5,399.5 C 245.85,400.184 247.684,403.184 246,408.5C 243.103,411.231 239.603,412.231 235.5,411.5C 235.5,407.5 235.5,403.5 235.5,399.5C 237.167,399.5 238.833,399.5 240.5,399.5 Z"/></g>
<g><path style="opacity:1" fill="#bfbfe3" d="M 355.5,399.5 C 356.495,410.321 356.828,421.321 356.5,432.5C 357.833,432.5 359.167,432.5 360.5,432.5C 360.172,421.321 360.505,410.321 361.5,399.5C 361.5,410.833 361.5,422.167 361.5,433.5C 359.5,433.5 357.5,433.5 355.5,433.5C 355.5,422.167 355.5,410.833 355.5,399.5 Z"/></g>
<g><path style="opacity:1" fill="#181096" d="M 391.5,400.5 C 394.628,405.767 396.961,411.434 398.5,417.5C 394.167,417.5 389.833,417.5 385.5,417.5C 387.217,411.733 389.217,406.066 391.5,400.5 Z"/></g>
<g><path style="opacity:1" fill="#110a94" d="M 209.5,415.5 C 205.5,416.833 201.5,416.833 197.5,415.5C 199.215,410.4 201.215,405.4 203.5,400.5C 205.895,405.355 207.895,410.355 209.5,415.5 Z"/></g>
<g><path style="opacity:1" fill="#5653b5" d="M 337.5,398.5 C 332.695,399.487 327.695,399.821 322.5,399.5C 322.5,403.167 322.5,406.833 322.5,410.5C 326.702,410.183 330.702,410.517 334.5,411.5C 330.167,411.5 325.833,411.5 321.5,411.5C 321.5,407.167 321.5,402.833 321.5,398.5C 326.833,398.5 332.167,398.5 337.5,398.5 Z"/></g>
<g><path style="opacity:1" fill="#4d4ab1" d="M 197.5,415.5 C 201.5,416.833 205.5,416.833 209.5,415.5C 210.043,415.56 210.376,415.893 210.5,416.5C 205.833,417.833 201.167,417.833 196.5,416.5C 196.624,415.893 196.957,415.56 197.5,415.5 Z"/></g>
<g><path style="opacity:1" fill="#bebee3" d="M 298.5,428.5 C 298.833,428.5 299.167,428.5 299.5,428.5C 299.5,430.167 299.5,431.833 299.5,433.5C 292.313,433.825 285.313,433.491 278.5,432.5C 285.167,432.5 291.833,432.5 298.5,432.5C 298.5,431.167 298.5,429.833 298.5,428.5 Z"/></g>
</svg>
